<?xml version="1.0" encoding="UTF-8"?>
<svg xmlns="http://www.w3.org/2000/svg" version="1.1" viewBox="0 0 801.3 179">
  <defs>
    <style>
      .cls-1 {
        fill: #1d3223;
      }
    </style>
  </defs>
  <!-- Generator: Adobe Illustrator 28.7.1, SVG Export Plug-In . SVG Version: 1.2.0 Build 142)  -->
  <g>
    <g id="Layer_1">
      <g>
        <path class="cls-1" d="M124.8,88.9c-7.2,20.9-13.9,40.6-20.8,60.3-1.9,5.5-4.1,10.9-6.8,16-4.6,8.6-12,13.3-22,12.8-10.1-.5-17.5-5.6-21-15-7.7-20.8-15.1-41.7-22.3-62.7C21.5,70,11.4,39.7,1.3,9.3.3,6.6-.3,3.7-1.2.4h41.3c0,1.9,0,3.9,0,5.8.3,23.2-.5,46.5,1.3,69.6,1.7,22.3,5.8,44.3,9.2,66.5,1,6.4,4.3,11.8,9.8,15.6,3.9,2.7,7.3,2.1,9.8-1.8,1.5-2.3,2.8-4.9,3.7-7.5,15.5-46,30.9-92,46.2-138.1C123.6,0,123.6,0,134.9,0c5.9,0,11.9,0,18.5,0-2.4,7.3-4.3,14.1-6.8,20.8-8.4,22.6-10.3,45.7-6.4,69.5,2.6,16,4.1,32.3,6.9,48.2,1,5.8,3.9,11.8,7.4,16.5,5.2,6.9,11.2,5.7,14.9-2.1.7-1.5,1.2-3.1,1.7-4.6,15-44.9,30-89.9,45.1-134.8.8-2.5,1.7-5,2.9-7.4,2-4,5.2-6.2,10-6.1,7,.2,13.9,0,21.2,0-.3,1.5-.4,2.7-.8,3.8-16.2,49.1-32.4,98.1-48.8,147.2-1.9,5.8-4.6,11.4-7.9,16.5-9.3,14.2-28,14.7-37.6.8-4.3-6.2-7.4-13.4-10-20.5-6.5-17.9-12.4-36-18.5-54.1-.4-1.2-1-2.4-2-4.8Z"/>
        <path class="cls-1" d="M399.3,175.2h-28v-5.6c0-54.4,0-108.9-.1-163.3,0-4.7,1.1-6.3,6-6.3,30.6.2,61.2,0,91.9,0,15.1,0,25.5,7.9,29.8,21.8,4.4,14.1.2,28.1-12.4,35.7-12.3,7.4-25.4,13.7-38.4,19.9-13.9,6.7-14.9,8.3-5.9,20.5,16,21.6,32.4,42.9,49,64.1,3.8,4.9,9.1,8.6,14.1,13.1-1,.3-1.7.6-2.4.6-10.3,0-20.6-.3-30.9-.2-4.8,0-8.3-1.9-11-5.7-14.5-20.6-29.2-41.2-43.5-62-6.8-9.9-5.5-15,4.7-21.2,9.5-5.8,19.4-11,28.7-17,11-7,18.6-16.8,20.2-30,.7-6.1.5-12.7-1-18.7-2.5-9.9-9.1-16.3-19.9-16.6-16-.5-31.9-.5-47.9-.4-1,0-2.5,1.9-3,3.2-.5,1.3-.1,2.9-.1,4.4,0,52.3,0,104.5,0,156.8s0,4.2,0,6.6Z"/>
        <path class="cls-1" d="M653.3,175.2h-28.6c0-2.2,0-4.2,0-6.1,0-29.4,0-58.7,0-88.1,0-8.2-2.1-10.7-11-13,13.7-4.2,26.2-8.1,39.5-12.1v28.4c.4.1.8.3,1.3.4,1.6-2.4,3.1-4.7,4.7-7.1,11.2-16.9,27.1-24.7,47.1-23,16.6,1.4,26.6,12.1,27.1,28.9.6,20.6.4,41.1.5,61.7,0,9.9,0,19.9,0,30.3h-28.4v-46c0-14.4,0-28.9,0-43.3,0-3.8-.2-7.7-1.1-11.4-2.3-9.8-9.9-14.1-19.7-11.5-15.6,4.1-28.3,18-29.9,35-1.4,14.7-1.1,29.5-1.3,44.2-.2,10.7,0,21.5,0,32.7Z"/>
        <path class="cls-1" d="M287,135.2c6.2,10.2,15,15.2,25.7,17.3,16.3,3.2,31.3-.9,45.7-8.2,1.6-.8,3.2-1.7,5.6-3-.4,1.8-.6,3-1,4.1-1.5,4.6-3.6,9-4.6,13.7-2.1,10.3-8.5,14.9-18.6,17-26.7,5.5-50.7,1.8-70.6-17.9-18-17.8-21.8-45.4-10.2-70.7,9.8-21.4,32.5-34.4,57.4-32.8,12.4.8,23.9,4,34.3,10.7,18.1,11.6,17.4,31.1-1.9,40.7-17.8,8.9-36.1,17-54.1,25.4-2.4,1.1-4.8,2.3-7.8,3.8ZM283.6,133.4c16.7-9,32.6-18.2,44.7-32.6,11.2-13.2,7.5-30.1-8.3-37.5-7.1-3.3-14.7-3.7-22.4-2.9-11.6,1.1-19.3,7.2-23.1,18.2-6.8,19.6-2.2,37.4,9,54.8Z"/>
        <path class="cls-1" d="M540.4,135.3c15.5,21.8,42.3,23.5,78,5.3-3.6,10-6.8,19.5-10.4,28.9-.6,1.6-2.7,2.9-4.5,3.6-18.2,7.9-36.7,6.9-55,.6-45-15.5-50.6-63.3-32-92.9,11.9-19,30.4-26.7,52.2-26.3,13.9.2,27,4.2,38.2,12.6,14.7,10.9,13.7,28.1-1.9,37.6-1.6.9-3.2,1.8-4.8,2.6-16.1,7.5-32.3,14.9-48.4,22.4-3.7,1.7-7.4,3.7-11.5,5.7ZM536.5,132.3c12.8-3.5,35.7-19.4,45.7-31.5,11.2-13.5,7.5-29.8-8.4-37.4-7.2-3.4-14.7-3.5-22.4-2.9-10.3.9-18,5.9-22,15.4-8.5,20.2-4,38.7,7.2,56.4Z"/>
        <path class="cls-1" d="M798.5,166.8c-6.1,2.9-12.1,6.1-18.4,8.7-16.7,6.7-30.3-2.4-30.6-20.4-.3-15.8-.1-31.5-.2-47.3,0-14.6,0-29.2,0-43.8,0-3.2-1-4.4-4.2-4.4-3.4,0-6.9-.3-11.8-.6,15.3-14.1,29.6-27.3,44.8-41.3v37.4c6.7.5,12.9,1,19.1,1.5,0,.7,0,1.4.1,2.1-6.2.5-12.3,1-18.8,1.5-.1,1.5-.4,2.7-.4,4,0,27.2-.1,54.4,0,81.6,0,15.1,2.9,18.1,18.1,19.6.6,0,1.2.2,1.9.3,0,.4.2.7.3,1.1Z"/>
      </g>
    </g>
  </g>
</svg>